<svg width="1200" height="820" viewBox="0 0 1200 820" fill="none" xmlns="http://www.w3.org/2000/svg" role="img" aria-labelledby="title desc">
  <title id="title">Amanuel Negash Tiruneh GitHub activity in 2026</title>
  <desc id="desc">GitHub activity graph for 2026 showing 2,121 contributions, daily heatmap, monthly bars, weekly trend, and active repositories.</desc>
  <defs>
    <linearGradient id="bg" x1="0" y1="0" x2="1200" y2="820" gradientUnits="userSpaceOnUse">
      <stop offset="0" stop-color="#06111F"/>
      <stop offset="0.52" stop-color="#0A2636"/>
      <stop offset="1" stop-color="#171A2E"/>
    </linearGradient>
    <linearGradient id="barGrad" x1="0" y1="120" x2="0" y2="0" gradientUnits="userSpaceOnUse">
      <stop stop-color="#38BDF8"/>
      <stop offset="1" stop-color="#B7F38A"/>
    </linearGradient>
    <linearGradient id="spark" x1="78" y1="610" x2="548" y2="610" gradientUnits="userSpaceOnUse">
      <stop stop-color="#22C55E"/>
      <stop offset="0.5" stop-color="#38BDF8"/>
      <stop offset="1" stop-color="#F59E0B"/>
    </linearGradient>
    <filter id="shadow" x="-20%" y="-20%" width="140%" height="140%">
      <feDropShadow dx="0" dy="16" stdDeviation="14" flood-color="#000000" flood-opacity="0.28"/>
    </filter>
    <style>
      .eyebrow { font: 800 16px Inter, Segoe UI, Arial, sans-serif; fill: #67E8F9; }
      .title { font: 850 38px Inter, Segoe UI, Arial, sans-serif; fill: #FFFFFF; }
      .subtitle { font: 600 15px Inter, Segoe UI, Arial, sans-serif; fill: #B8D4E8; }
      .cardLabel { font: 800 12px Inter, Segoe UI, Arial, sans-serif; fill: #8FD8FF; }
      .cardValue { font: 850 30px Inter, Segoe UI, Arial, sans-serif; fill: #FFFFFF; }
      .cardNote { font: 650 12px Inter, Segoe UI, Arial, sans-serif; fill: #B8D4E8; }
      .section { font: 850 19px Inter, Segoe UI, Arial, sans-serif; fill: #F8FAFC; }
      .axis { font: 750 12px Inter, Segoe UI, Arial, sans-serif; fill: #B8D4E8; }
      .barValue { font: 850 13px Inter, Segoe UI, Arial, sans-serif; fill: #FDE68A; }
      .repoName { font: 800 14px Inter, Segoe UI, Arial, sans-serif; fill: #F8FAFC; }
      .repoDesc { font: 650 13px Inter, Segoe UI, Arial, sans-serif; fill: #B8D4E8; }
      .legend { font: 700 11px Inter, Segoe UI, Arial, sans-serif; fill: #A8C7DB; }
      .pulse { animation: pulse 2.8s ease-in-out infinite; transform-origin: center; }
      @keyframes pulse { 0%, 100% { opacity: .8; } 50% { opacity: 1; } }
    </style>
  </defs>

  <rect width="1200" height="820" rx="28" fill="url(#bg)"/>
  <path d="M-28 676 C146 570 289 735 464 630 C658 513 759 344 1010 384 C1107 399 1162 451 1230 410" stroke="#FFFFFF" stroke-opacity="0.055" stroke-width="78"/>
  <path d="M-20 126 C188 202 314 62 521 116 C740 173 807 340 1038 270 C1120 246 1169 181 1230 178" stroke="#FFFFFF" stroke-opacity="0.045" stroke-width="54"/>

  <text x="58" y="62" class="eyebrow">GITHUB ACTIVITY . 2026</text>
  <text x="58" y="110" class="title">2,121 contributions in 2026</text>
  <text x="58" y="142" class="subtitle">Real contribution calendar from January 1 through June 7, 2026. Public profile updates, repositories, private work, and engineering momentum in one view.</text>

  <g filter="url(#shadow)">
    <rect x="58" y="174" width="188" height="86" rx="18" fill="#0E1F2C" stroke="#38BDF8" stroke-opacity="0.28"/>
    <text x="78" y="202" class="cardLabel">TOTAL</text>
    <text x="78" y="236" class="cardValue">2,121</text>
    <text x="78" y="252" class="cardNote">contributions</text>

    <rect x="264" y="174" width="188" height="86" rx="18" fill="#0E1F2C" stroke="#22C55E" stroke-opacity="0.28"/>
    <text x="284" y="202" class="cardLabel">ACTIVE DAYS</text>
    <text x="284" y="236" class="cardValue">75</text>
    <text x="284" y="252" class="cardNote">days with activity</text>

    <rect x="470" y="174" width="188" height="86" rx="18" fill="#0E1F2C" stroke="#FDE047" stroke-opacity="0.28"/>
    <text x="490" y="202" class="cardLabel">BEST DAY</text>
    <text x="490" y="236" class="cardValue">247</text>
    <text x="490" y="252" class="cardNote">2026-05-17</text>

    <rect x="676" y="174" width="228" height="86" rx="18" fill="#0E1F2C" stroke="#A78BFA" stroke-opacity="0.28"/>
    <text x="696" y="202" class="cardLabel">STRONGEST WEEK</text>
    <text x="696" y="236" class="cardValue">614</text>
    <text x="696" y="252" class="cardNote">2026-05-10 to 2026-05-16</text>

    <rect x="922" y="174" width="220" height="86" rx="18" fill="#0E1F2C" stroke="#F59E0B" stroke-opacity="0.28"/>
    <text x="942" y="202" class="cardLabel">WINDOW</text>
    <text x="942" y="236" class="cardValue">Jan-Jun</text>
    <text x="942" y="252" class="cardNote">through June 7, 2026</text>
  </g>

  <text x="58" y="314" class="section">Daily contribution heatmap</text>
  <text x="58" y="338" class="subtitle">Each square is one day. Brighter cells mean heavier activity.</text>
  <g><rect x="78" y="400" width="12" height="12" rx="3" fill="#172434" opacity="0.6"><title>2026-01-01: 0 contributions</title></rect><rect x="78" y="416" width="12" height="12" rx="3" fill="#172434" opacity="0.6"><title>2026-01-02: 0 contributions</title></rect><rect x="78" y="432" width="12" height="12" rx="3" fill="#172434" opacity="0.6"><title>2026-01-03: 0 contributions</title></rect><rect x="94" y="448" width="12" height="12" rx="3" fill="#172434" opacity="0.6"><title>2026-01-04: 0 contributions</title></rect><rect x="94" y="352" width="12" height="12" rx="3" fill="#172434" opacity="0.6"><title>2026-01-05: 0 contributions</title></rect><rect x="94" y="368" width="12" height="12" rx="3" fill="#172434" opacity="0.6"><title>2026-01-06: 0 contributions</title></rect><rect x="94" y="384" width="12" height="12" rx="3" fill="#172434" opacity="0.6"><title>2026-01-07: 0 contributions</title></rect><rect x="94" y="400" width="12" height="12" rx="3" fill="#172434" opacity="0.6"><title>2026-01-08: 0 contributions</title></rect><rect x="94" y="416" width="12" height="12" rx="3" fill="#172434" opacity="0.6"><title>2026-01-09: 0 contributions</title></rect><rect x="94" y="432" width="12" height="12" rx="3" fill="#172434" opacity="0.6"><title>2026-01-10: 0 contributions</title></rect><rect x="110" y="448" width="12" height="12" rx="3" fill="#172434" opacity="0.6"><title>2026-01-11: 0 contributions</title></rect><rect x="110" y="352" width="12" height="12" rx="3" fill="#172434" opacity="0.6"><title>2026-01-12: 0 contributions</title></rect><rect x="110" y="368" width="12" height="12" rx="3" fill="#172434" opacity="0.6"><title>2026-01-13: 0 contributions</title></rect><rect x="110" y="384" width="12" height="12" rx="3" fill="#172434" opacity="0.6"><title>2026-01-14: 0 contributions</title></rect><rect x="110" y="400" width="12" height="12" rx="3" fill="#172434" opacity="0.6"><title>2026-01-15: 0 contributions</title></rect><rect x="110" y="416" width="12" height="12" rx="3" fill="#172434" opacity="0.6"><title>2026-01-16: 0 contributions</title></rect><rect x="110" y="432" width="12" height="12" rx="3" fill="#172434" opacity="0.6"><title>2026-01-17: 0 contributions</title></rect><rect x="126" y="448" width="12" height="12" rx="3" fill="#172434" opacity="0.6"><title>2026-01-18: 0 contributions</title></rect><rect x="126" y="352" width="12" height="12" rx="3" fill="#172434" opacity="0.6"><title>2026-01-19: 0 contributions</title></rect><rect x="126" y="368" width="12" height="12" rx="3" fill="#172434" opacity="0.6"><title>2026-01-20: 0 contributions</title></rect><rect x="126" y="384" width="12" height="12" rx="3" fill="#172434" opacity="0.6"><title>2026-01-21: 0 contributions</title></rect><rect x="126" y="400" width="12" height="12" rx="3" fill="#172434" opacity="0.6"><title>2026-01-22: 0 contributions</title></rect><rect x="126" y="416" width="12" height="12" rx="3" fill="#172434" opacity="0.6"><title>2026-01-23: 0 contributions</title></rect><rect x="126" y="432" width="12" height="12" rx="3" fill="#172434" opacity="0.6"><title>2026-01-24: 0 contributions</title></rect><rect x="142" y="448" width="12" height="12" rx="3" fill="#172434" opacity="0.6"><title>2026-01-25: 0 contributions</title></rect><rect x="142" y="352" width="12" height="12" rx="3" fill="#172434" opacity="0.6"><title>2026-01-26: 0 contributions</title></rect><rect x="142" y="368" width="12" height="12" rx="3" fill="#172434" opacity="0.6"><title>2026-01-27: 0 contributions</title></rect><rect x="142" y="384" width="12" height="12" rx="3" fill="#172434" opacity="0.6"><title>2026-01-28: 0 contributions</title></rect><rect x="142" y="400" width="12" height="12" rx="3" fill="#172434" opacity="0.6"><title>2026-01-29: 0 contributions</title></rect><rect x="142" y="416" width="12" height="12" rx="3" fill="#172434" opacity="0.6"><title>2026-01-30: 0 contributions</title></rect><rect x="142" y="432" width="12" height="12" rx="3" fill="#172434" opacity="0.6"><title>2026-01-31: 0 contributions</title></rect><rect x="158" y="448" width="12" height="12" rx="3" fill="#172434" opacity="0.6"><title>2026-02-01: 0 contributions</title></rect><rect x="158" y="352" width="12" height="12" rx="3" fill="#172434" opacity="0.6"><title>2026-02-02: 0 contributions</title></rect><rect x="158" y="368" width="12" height="12" rx="3" fill="#172434" opacity="0.6"><title>2026-02-03: 0 contributions</title></rect><rect x="158" y="384" width="12" height="12" rx="3" fill="#172434" opacity="0.6"><title>2026-02-04: 0 contributions</title></rect><rect x="158" y="400" width="12" height="12" rx="3" fill="#172434" opacity="0.6"><title>2026-02-05: 0 contributions</title></rect><rect x="158" y="416" width="12" height="12" rx="3" fill="#172434" opacity="0.6"><title>2026-02-06: 0 contributions</title></rect><rect x="158" y="432" width="12" height="12" rx="3" fill="#172434" opacity="0.6"><title>2026-02-07: 0 contributions</title></rect><rect x="174" y="448" width="12" height="12" rx="3" fill="#172434" opacity="0.6"><title>2026-02-08: 0 contributions</title></rect><rect x="174" y="352" width="12" height="12" rx="3" fill="#172434" opacity="0.6"><title>2026-02-09: 0 contributions</title></rect><rect x="174" y="368" width="12" height="12" rx="3" fill="#172434" opacity="0.6"><title>2026-02-10: 0 contributions</title></rect><rect x="174" y="384" width="12" height="12" rx="3" fill="#172434" opacity="0.6"><title>2026-02-11: 0 contributions</title></rect><rect x="174" y="400" width="12" height="12" rx="3" fill="#172434" opacity="0.6"><title>2026-02-12: 0 contributions</title></rect><rect x="174" y="416" width="12" height="12" rx="3" fill="#172434" opacity="0.6"><title>2026-02-13: 0 contributions</title></rect><rect x="174" y="432" width="12" height="12" rx="3" fill="#172434" opacity="0.6"><title>2026-02-14: 0 contributions</title></rect><rect x="190" y="448" width="12" height="12" rx="3" fill="#172434" opacity="0.6"><title>2026-02-15: 0 contributions</title></rect><rect x="190" y="352" width="12" height="12" rx="3" fill="#172434" opacity="0.6"><title>2026-02-16: 0 contributions</title></rect><rect x="190" y="368" width="12" height="12" rx="3" fill="#172434" opacity="0.6"><title>2026-02-17: 0 contributions</title></rect><rect x="190" y="384" width="12" height="12" rx="3" fill="#172434" opacity="0.6"><title>2026-02-18: 0 contributions</title></rect><rect x="190" y="400" width="12" height="12" rx="3" fill="#172434" opacity="0.6"><title>2026-02-19: 0 contributions</title></rect><rect x="190" y="416" width="12" height="12" rx="3" fill="#172434" opacity="0.6"><title>2026-02-20: 0 contributions</title></rect><rect x="190" y="432" width="12" height="12" rx="3" fill="#172434" opacity="0.6"><title>2026-02-21: 0 contributions</title></rect><rect x="206" y="448" width="12" height="12" rx="3" fill="#172434" opacity="0.6"><title>2026-02-22: 0 contributions</title></rect><rect x="206" y="352" width="12" height="12" rx="3" fill="#172434" opacity="0.6"><title>2026-02-23: 0 contributions</title></rect><rect x="206" y="368" width="12" height="12" rx="3" fill="#172434" opacity="0.6"><title>2026-02-24: 0 contributions</title></rect><rect x="206" y="384" width="12" height="12" rx="3" fill="#0E5F3A" opacity="1"><title>2026-02-25: 10 contributions</title></rect><rect x="206" y="400" width="12" height="12" rx="3" fill="#0E5F3A" opacity="1"><title>2026-02-26: 3 contributions</title></rect><rect x="206" y="416" width="12" height="12" rx="3" fill="#0E5F3A" opacity="1"><title>2026-02-27: 3 contributions</title></rect><rect x="206" y="432" width="12" height="12" rx="3" fill="#0E5F3A" opacity="1"><title>2026-02-28: 2 contributions</title></rect><rect x="222" y="448" width="12" height="12" rx="3" fill="#0E5F3A" opacity="1"><title>2026-03-01: 2 contributions</title></rect><rect x="222" y="352" width="12" height="12" rx="3" fill="#172434" opacity="0.6"><title>2026-03-02: 0 contributions</title></rect><rect x="222" y="368" width="12" height="12" rx="3" fill="#0E5F3A" opacity="1"><title>2026-03-03: 2 contributions</title></rect><rect x="222" y="384" width="12" height="12" rx="3" fill="#172434" opacity="0.6"><title>2026-03-04: 0 contributions</title></rect><rect x="222" y="400" width="12" height="12" rx="3" fill="#172434" opacity="0.6"><title>2026-03-05: 0 contributions</title></rect><rect x="222" y="416" width="12" height="12" rx="3" fill="#172434" opacity="0.6"><title>2026-03-06: 0 contributions</title></rect><rect x="222" y="432" width="12" height="12" rx="3" fill="#172434" opacity="0.6"><title>2026-03-07: 0 contributions</title></rect><rect x="238" y="448" width="12" height="12" rx="3" fill="#172434" opacity="0.6"><title>2026-03-08: 0 contributions</title></rect><rect x="238" y="352" width="12" height="12" rx="3" fill="#172434" opacity="0.6"><title>2026-03-09: 0 contributions</title></rect><rect x="238" y="368" width="12" height="12" rx="3" fill="#0E5F3A" opacity="1"><title>2026-03-10: 1 contributions</title></rect><rect x="238" y="384" width="12" height="12" rx="3" fill="#0E5F3A" opacity="1"><title>2026-03-11: 1 contributions</title></rect><rect x="238" y="400" width="12" height="12" rx="3" fill="#0E5F3A" opacity="1"><title>2026-03-12: 5 contributions</title></rect><rect x="238" y="416" width="12" height="12" rx="3" fill="#172434" opacity="0.6"><title>2026-03-13: 0 contributions</title></rect><rect x="238" y="432" width="12" height="12" rx="3" fill="#0E5F3A" opacity="1"><title>2026-03-14: 3 contributions</title></rect><rect x="254" y="448" width="12" height="12" rx="3" fill="#0E5F3A" opacity="1"><title>2026-03-15: 8 contributions</title></rect><rect x="254" y="352" width="12" height="12" rx="3" fill="#0E5F3A" opacity="1"><title>2026-03-16: 3 contributions</title></rect><rect x="254" y="368" width="12" height="12" rx="3" fill="#0E5F3A" opacity="1"><title>2026-03-17: 11 contributions</title></rect><rect x="254" y="384" width="12" height="12" rx="3" fill="#0E5F3A" opacity="1"><title>2026-03-18: 16 contributions</title></rect><rect x="254" y="400" width="12" height="12" rx="3" fill="#172434" opacity="0.6"><title>2026-03-19: 0 contributions</title></rect><rect x="254" y="416" width="12" height="12" rx="3" fill="#0E5F3A" opacity="1"><title>2026-03-20: 6 contributions</title></rect><rect x="254" y="432" width="12" height="12" rx="3" fill="#0E5F3A" opacity="1"><title>2026-03-21: 4 contributions</title></rect><rect x="270" y="448" width="12" height="12" rx="3" fill="#172434" opacity="0.6"><title>2026-03-22: 0 contributions</title></rect><rect x="270" y="352" width="12" height="12" rx="3" fill="#172434" opacity="0.6"><title>2026-03-23: 0 contributions</title></rect><rect x="270" y="368" width="12" height="12" rx="3" fill="#172434" opacity="0.6"><title>2026-03-24: 0 contributions</title></rect><rect x="270" y="384" width="12" height="12" rx="3" fill="#172434" opacity="0.6"><title>2026-03-25: 0 contributions</title></rect><rect x="270" y="400" width="12" height="12" rx="3" fill="#172434" opacity="0.6"><title>2026-03-26: 0 contributions</title></rect><rect x="270" y="416" width="12" height="12" rx="3" fill="#0E5F3A" opacity="1"><title>2026-03-27: 6 contributions</title></rect><rect x="270" y="432" width="12" height="12" rx="3" fill="#0E5F3A" opacity="1"><title>2026-03-28: 2 contributions</title></rect><rect x="286" y="448" width="12" height="12" rx="3" fill="#172434" opacity="0.6"><title>2026-03-29: 0 contributions</title></rect><rect x="286" y="352" width="12" height="12" rx="3" fill="#0E5F3A" opacity="1"><title>2026-03-30: 6 contributions</title></rect><rect x="286" y="368" width="12" height="12" rx="3" fill="#0E5F3A" opacity="1"><title>2026-03-31: 9 contributions</title></rect><rect x="286" y="384" width="12" height="12" rx="3" fill="#0E5F3A" opacity="1"><title>2026-04-01: 2 contributions</title></rect><rect x="286" y="400" width="12" height="12" rx="3" fill="#0E5F3A" opacity="1"><title>2026-04-02: 6 contributions</title></rect><rect x="286" y="416" width="12" height="12" rx="3" fill="#0E5F3A" opacity="1"><title>2026-04-03: 4 contributions</title></rect><rect x="286" y="432" width="12" height="12" rx="3" fill="#0E5F3A" opacity="1"><title>2026-04-04: 2 contributions</title></rect><rect x="302" y="448" width="12" height="12" rx="3" fill="#172434" opacity="0.6"><title>2026-04-05: 0 contributions</title></rect><rect x="302" y="352" width="12" height="12" rx="3" fill="#0E5F3A" opacity="1"><title>2026-04-06: 8 contributions</title></rect><rect x="302" y="368" width="12" height="12" rx="3" fill="#0E5F3A" opacity="1"><title>2026-04-07: 4 contributions</title></rect><rect x="302" y="384" width="12" height="12" rx="3" fill="#0E5F3A" opacity="1"><title>2026-04-08: 4 contributions</title></rect><rect x="302" y="400" width="12" height="12" rx="3" fill="#1D9A5F" opacity="1"><title>2026-04-09: 40 contributions</title></rect><rect x="302" y="416" width="12" height="12" rx="3" fill="#1D9A5F" opacity="1"><title>2026-04-10: 85 contributions</title></rect><rect x="302" y="432" width="12" height="12" rx="3" fill="#0E5F3A" opacity="1"><title>2026-04-11: 13 contributions</title></rect><rect x="318" y="448" width="12" height="12" rx="3" fill="#0E5F3A" opacity="1"><title>2026-04-12: 33 contributions</title></rect><rect x="318" y="352" width="12" height="12" rx="3" fill="#1D9A5F" opacity="1"><title>2026-04-13: 43 contributions</title></rect><rect x="318" y="368" width="12" height="12" rx="3" fill="#1D9A5F" opacity="1"><title>2026-04-14: 85 contributions</title></rect><rect x="318" y="384" width="12" height="12" rx="3" fill="#1D9A5F" opacity="1"><title>2026-04-15: 56 contributions</title></rect><rect x="318" y="400" width="12" height="12" rx="3" fill="#0E5F3A" opacity="1"><title>2026-04-16: 31 contributions</title></rect><rect x="318" y="416" width="12" height="12" rx="3" fill="#1D9A5F" opacity="1"><title>2026-04-17: 41 contributions</title></rect><rect x="318" y="432" width="12" height="12" rx="3" fill="#0E5F3A" opacity="1"><title>2026-04-18: 8 contributions</title></rect><rect x="334" y="448" width="12" height="12" rx="3" fill="#0E5F3A" opacity="1"><title>2026-04-19: 22 contributions</title></rect><rect x="334" y="352" width="12" height="12" rx="3" fill="#1D9A5F" opacity="1"><title>2026-04-20: 74 contributions</title></rect><rect x="334" y="368" width="12" height="12" rx="3" fill="#0E5F3A" opacity="1"><title>2026-04-21: 31 contributions</title></rect><rect x="334" y="384" width="12" height="12" rx="3" fill="#1D9A5F" opacity="1"><title>2026-04-22: 59 contributions</title></rect><rect x="334" y="400" width="12" height="12" rx="3" fill="#0E5F3A" opacity="1"><title>2026-04-23: 29 contributions</title></rect><rect x="334" y="416" width="12" height="12" rx="3" fill="#0E5F3A" opacity="1"><title>2026-04-24: 23 contributions</title></rect><rect x="334" y="432" width="12" height="12" rx="3" fill="#0E5F3A" opacity="1"><title>2026-04-25: 31 contributions</title></rect><rect x="350" y="448" width="12" height="12" rx="3" fill="#0E5F3A" opacity="1"><title>2026-04-26: 26 contributions</title></rect><rect x="350" y="352" width="12" height="12" rx="3" fill="#0E5F3A" opacity="1"><title>2026-04-27: 23 contributions</title></rect><rect x="350" y="368" width="12" height="12" rx="3" fill="#0E5F3A" opacity="1"><title>2026-04-28: 10 contributions</title></rect><rect x="350" y="384" width="12" height="12" rx="3" fill="#0E5F3A" opacity="1"><title>2026-04-29: 2 contributions</title></rect><rect x="350" y="400" width="12" height="12" rx="3" fill="#0E5F3A" opacity="1"><title>2026-04-30: 6 contributions</title></rect><rect x="350" y="416" width="12" height="12" rx="3" fill="#0E5F3A" opacity="1"><title>2026-05-01: 1 contributions</title></rect><rect x="350" y="432" width="12" height="12" rx="3" fill="#0E5F3A" opacity="1"><title>2026-05-02: 10 contributions</title></rect><rect x="366" y="448" width="12" height="12" rx="3" fill="#0E5F3A" opacity="1"><title>2026-05-03: 14 contributions</title></rect><rect x="366" y="352" width="12" height="12" rx="3" fill="#0E5F3A" opacity="1"><title>2026-05-04: 18 contributions</title></rect><rect x="366" y="368" width="12" height="12" rx="3" fill="#0E5F3A" opacity="1"><title>2026-05-05: 25 contributions</title></rect><rect x="366" y="384" width="12" height="12" rx="3" fill="#0E5F3A" opacity="1"><title>2026-05-06: 6 contributions</title></rect><rect x="366" y="400" width="12" height="12" rx="3" fill="#0E5F3A" opacity="1"><title>2026-05-07: 27 contributions</title></rect><rect x="366" y="416" width="12" height="12" rx="3" fill="#0E5F3A" opacity="1"><title>2026-05-08: 1 contributions</title></rect><rect x="366" y="432" width="12" height="12" rx="3" fill="#0E5F3A" opacity="1"><title>2026-05-09: 4 contributions</title></rect><rect x="382" y="448" width="12" height="12" rx="3" fill="#0E5F3A" opacity="1"><title>2026-05-10: 4 contributions</title></rect><rect x="382" y="352" width="12" height="12" rx="3" fill="#1D9A5F" opacity="1"><title>2026-05-11: 52 contributions</title></rect><rect x="382" y="368" width="12" height="12" rx="3" fill="#1D9A5F" opacity="1"><title>2026-05-12: 75 contributions</title></rect><rect x="382" y="384" width="12" height="12" rx="3" fill="#1D9A5F" opacity="1"><title>2026-05-13: 52 contributions</title></rect><rect x="382" y="400" width="12" height="12" rx="3" fill="#1D9A5F" opacity="1"><title>2026-05-14: 46 contributions</title></rect><rect x="382" y="416" width="12" height="12" rx="3" fill="#B7F38A" opacity="1"><title>2026-05-15: 240 contributions</title></rect><rect x="382" y="432" width="12" height="12" rx="3" fill="#35C97D" opacity="1"><title>2026-05-16: 145 contributions</title></rect><rect x="398" y="448" width="12" height="12" rx="3" fill="#B7F38A" opacity="1"><title>2026-05-17: 247 contributions</title></rect><rect x="398" y="352" width="12" height="12" rx="3" fill="#35C97D" opacity="1"><title>2026-05-18: 146 contributions</title></rect><rect x="398" y="368" width="12" height="12" rx="3" fill="#0E5F3A" opacity="1"><title>2026-05-19: 24 contributions</title></rect><rect x="398" y="384" width="12" height="12" rx="3" fill="#172434" opacity="0.6"><title>2026-05-20: 0 contributions</title></rect><rect x="398" y="400" width="12" height="12" rx="3" fill="#172434" opacity="0.6"><title>2026-05-21: 0 contributions</title></rect><rect x="398" y="416" width="12" height="12" rx="3" fill="#0E5F3A" opacity="1"><title>2026-05-22: 3 contributions</title></rect><rect x="398" y="432" width="12" height="12" rx="3" fill="#0E5F3A" opacity="1"><title>2026-05-23: 9 contributions</title></rect><rect x="414" y="448" width="12" height="12" rx="3" fill="#172434" opacity="0.6"><title>2026-05-24: 0 contributions</title></rect><rect x="414" y="352" width="12" height="12" rx="3" fill="#0E5F3A" opacity="1"><title>2026-05-25: 22 contributions</title></rect><rect x="414" y="368" width="12" height="12" rx="3" fill="#172434" opacity="0.6"><title>2026-05-26: 0 contributions</title></rect><rect x="414" y="384" width="12" height="12" rx="3" fill="#172434" opacity="0.6"><title>2026-05-27: 0 contributions</title></rect><rect x="414" y="400" width="12" height="12" rx="3" fill="#172434" opacity="0.6"><title>2026-05-28: 0 contributions</title></rect><rect x="414" y="416" width="12" height="12" rx="3" fill="#172434" opacity="0.6"><title>2026-05-29: 0 contributions</title></rect><rect x="414" y="432" width="12" height="12" rx="3" fill="#172434" opacity="0.6"><title>2026-05-30: 0 contributions</title></rect><rect x="430" y="448" width="12" height="12" rx="3" fill="#172434" opacity="0.6"><title>2026-05-31: 0 contributions</title></rect><rect x="430" y="352" width="12" height="12" rx="3" fill="#172434" opacity="0.6"><title>2026-06-01: 0 contributions</title></rect><rect x="430" y="368" width="12" height="12" rx="3" fill="#172434" opacity="0.6"><title>2026-06-02: 0 contributions</title></rect><rect x="430" y="384" width="12" height="12" rx="3" fill="#0E5F3A" opacity="1"><title>2026-06-03: 8 contributions</title></rect><rect x="430" y="400" width="12" height="12" rx="3" fill="#0E5F3A" opacity="1"><title>2026-06-04: 7 contributions</title></rect><rect x="430" y="416" width="12" height="12" rx="3" fill="#0E5F3A" opacity="1"><title>2026-06-05: 1 contributions</title></rect><rect x="430" y="432" width="12" height="12" rx="3" fill="#172434" opacity="0.6"><title>2026-06-06: 0 contributions</title></rect><rect x="446" y="448" width="12" height="12" rx="3" fill="#0E5F3A" opacity="1"><title>2026-06-07: 30 contributions</title></rect></g>
  <g transform="translate(78 476)">
    <text x="0" y="0" class="legend">Less</text>
    <rect x="38" y="-10" width="12" height="12" rx="3" fill="#172434" opacity=".62"/>
    <rect x="56" y="-10" width="12" height="12" rx="3" fill="#0E5F3A"/>
    <rect x="74" y="-10" width="12" height="12" rx="3" fill="#1D9A5F"/>
    <rect x="92" y="-10" width="12" height="12" rx="3" fill="#35C97D"/>
    <rect x="110" y="-10" width="12" height="12" rx="3" fill="#B7F38A"/>
    <text x="132" y="0" class="legend">More</text>
  </g>

  <text x="600" y="314" class="section">Monthly contribution volume</text>
  <text x="600" y="338" class="subtitle">April and May carry the strongest public GitHub activity.</text>
  <g><rect x="622" y="468" width="68" height="0" rx="10" fill="url(#barGrad)"/><text x="656.0" y="495" class="axis" text-anchor="middle">Jan</text><text x="656.0" y="457" class="barValue" text-anchor="middle">0</text><rect x="712" y="466" width="68" height="2" rx="10" fill="url(#barGrad)"/><text x="746.0" y="495" class="axis" text-anchor="middle">Feb</text><text x="746.0" y="455" class="barValue" text-anchor="middle">18</text><rect x="802" y="458" width="68" height="10" rx="10" fill="url(#barGrad)"/><text x="836.0" y="495" class="axis" text-anchor="middle">Mar</text><text x="836.0" y="447" class="barValue" text-anchor="middle">85</text><rect x="892" y="378" width="68" height="90" rx="10" fill="url(#barGrad)"/><text x="926.0" y="495" class="axis" text-anchor="middle">Apr</text><text x="926.0" y="367" class="barValue" text-anchor="middle">801</text><rect x="982" y="336" width="68" height="132" rx="10" fill="url(#barGrad)"/><text x="1016.0" y="495" class="axis" text-anchor="middle">May</text><text x="1016.0" y="325" class="barValue" text-anchor="middle">1,171</text><rect x="1072" y="463" width="68" height="5" rx="10" fill="url(#barGrad)"/><text x="1106.0" y="495" class="axis" text-anchor="middle">Jun</text><text x="1106.0" y="452" class="barValue" text-anchor="middle">46</text></g>

  <text x="58" y="560" class="section">Weekly activity trend</text>
  <path d="M 78,720 78.0,720.0 98.4,720.0 118.9,720.0 139.3,720.0 159.7,720.0 180.2,720.0 200.6,720.0 221.0,720.0 241.5,716.8 261.9,719.3 282.3,718.2 302.8,711.4 323.2,718.6 343.7,714.8 364.1,692.4 384.5,666.8 405.0,671.8 425.4,706.0 445.8,703.0 466.3,610.0 486.7,643.1 507.1,716.1 527.6,717.1 548.0,714.6 548,720" fill="#38BDF8" fill-opacity="0.10"/>
  <polyline points="78.0,720.0 98.4,720.0 118.9,720.0 139.3,720.0 159.7,720.0 180.2,720.0 200.6,720.0 221.0,720.0 241.5,716.8 261.9,719.3 282.3,718.2 302.8,711.4 323.2,718.6 343.7,714.8 364.1,692.4 384.5,666.8 405.0,671.8 425.4,706.0 445.8,703.0 466.3,610.0 486.7,643.1 507.1,716.1 527.6,717.1 548.0,714.6" fill="none" stroke="url(#spark)" stroke-width="5" stroke-linecap="round" stroke-linejoin="round"/>
  <circle class="pulse" cx="466.3" cy="610.0" r="4" fill="#FDE68A"/>
  <text x="58" y="752" class="subtitle">Peak week: 614 contributions. This section is intentionally 2026-only.</text>

  <text x="610" y="560" class="section">Repositories active in the 2026 story</text>
  <g><text x="620" y="610" class="repoName">emmanuelnegash</text><text x="912" y="610" class="repoDesc">profile README + visual portfolio</text><text x="620" y="644" class="repoName">delivargo_price</text><text x="912" y="644" class="repoDesc">logistics quote engine</text><text x="620" y="678" class="repoName">selam</text><text x="912" y="678" class="repoDesc">community product surface</text><text x="620" y="712" class="repoName">omnisaccos</text><text x="912" y="712" class="repoDesc">finance platform work</text><text x="620" y="746" class="repoName">personal-ai-executive-assistant</text><text x="912" y="746" class="repoDesc">agentic assistant system</text></g>
</svg>
