<svg width="1200" height="650" viewBox="0 0 1200 650" fill="none" xmlns="http://www.w3.org/2000/svg" role="img" aria-labelledby="title desc">
  <title id="title">Amanuel Negash Tiruneh GitHub activity in 2026</title>
  <desc id="desc">GitHub activity graph for 2026 showing 2,121 contributions, daily heatmap, monthly bars, weekly trend, and active repositories.</desc>
  <defs>
    <linearGradient id="bg" x1="0" y1="0" x2="1200" y2="650" gradientUnits="userSpaceOnUse">
      <stop offset="0" stop-color="#06111F"/>
      <stop offset="0.52" stop-color="#0A2636"/>
      <stop offset="1" stop-color="#171A2E"/>
    </linearGradient>
    <linearGradient id="barGrad" x1="0" y1="120" x2="0" y2="0" gradientUnits="userSpaceOnUse">
      <stop stop-color="#38BDF8"/>
      <stop offset="1" stop-color="#B7F38A"/>
    </linearGradient>
    <linearGradient id="spark" x1="70" y1="450" x2="540" y2="450" gradientUnits="userSpaceOnUse">
      <stop stop-color="#22C55E"/>
      <stop offset="0.5" stop-color="#38BDF8"/>
      <stop offset="1" stop-color="#F59E0B"/>
    </linearGradient>
    <filter id="shadow" x="-20%" y="-20%" width="140%" height="140%">
      <feDropShadow dx="0" dy="16" stdDeviation="14" flood-color="#000000" flood-opacity="0.28"/>
    </filter>
    <style>
      .eyebrow { font: 800 16px Inter, Segoe UI, Arial, sans-serif; fill: #67E8F9; }
      .title { font: 850 38px Inter, Segoe UI, Arial, sans-serif; fill: #FFFFFF; }
      .subtitle { font: 600 15px Inter, Segoe UI, Arial, sans-serif; fill: #B8D4E8; }
      .cardLabel { font: 800 12px Inter, Segoe UI, Arial, sans-serif; fill: #8FD8FF; }
      .cardValue { font: 850 30px Inter, Segoe UI, Arial, sans-serif; fill: #FFFFFF; }
      .cardNote { font: 650 12px Inter, Segoe UI, Arial, sans-serif; fill: #B8D4E8; }
      .section { font: 850 18px Inter, Segoe UI, Arial, sans-serif; fill: #F8FAFC; }
      .axis { font: 750 12px Inter, Segoe UI, Arial, sans-serif; fill: #B8D4E8; }
      .barValue { font: 850 13px Inter, Segoe UI, Arial, sans-serif; fill: #FDE68A; }
      .repoName { font: 800 14px Inter, Segoe UI, Arial, sans-serif; fill: #F8FAFC; }
      .repoDesc { font: 650 13px Inter, Segoe UI, Arial, sans-serif; fill: #B8D4E8; }
      .legend { font: 700 11px Inter, Segoe UI, Arial, sans-serif; fill: #A8C7DB; }
      .pulse { animation: pulse 2.8s ease-in-out infinite; transform-origin: center; }
      @keyframes pulse { 0%, 100% { opacity: .8; } 50% { opacity: 1; } }
    </style>
  </defs>

  <rect width="1200" height="650" rx="28" fill="url(#bg)"/>
  <path d="M-28 528 C146 422 289 587 464 482 C658 365 759 196 1010 236 C1107 251 1162 303 1230 262" stroke="#FFFFFF" stroke-opacity="0.055" stroke-width="78"/>
  <path d="M-20 126 C188 202 314 62 521 116 C740 173 807 340 1038 270 C1120 246 1169 181 1230 178" stroke="#FFFFFF" stroke-opacity="0.045" stroke-width="54"/>

  <text x="58" y="62" class="eyebrow">GITHUB ACTIVITY . 2026</text>
  <text x="58" y="110" class="title">2,121 contributions in 2026</text>
  <text x="58" y="142" class="subtitle">Real contribution calendar from January 1 through June 7, 2026. Public profile updates, repositories, private work, and engineering momentum in one view.</text>

  <g filter="url(#shadow)">
    <rect x="58" y="164" width="188" height="86" rx="18" fill="#0E1F2C" stroke="#38BDF8" stroke-opacity="0.28"/>
    <text x="78" y="192" class="cardLabel">TOTAL</text>
    <text x="78" y="226" class="cardValue">2,121</text>
    <text x="78" y="242" class="cardNote">contributions</text>

    <rect x="264" y="164" width="188" height="86" rx="18" fill="#0E1F2C" stroke="#22C55E" stroke-opacity="0.28"/>
    <text x="284" y="192" class="cardLabel">ACTIVE DAYS</text>
    <text x="284" y="226" class="cardValue">75</text>
    <text x="284" y="242" class="cardNote">days with activity</text>

    <rect x="470" y="164" width="188" height="86" rx="18" fill="#0E1F2C" stroke="#FDE047" stroke-opacity="0.28"/>
    <text x="490" y="192" class="cardLabel">BEST DAY</text>
    <text x="490" y="226" class="cardValue">247</text>
    <text x="490" y="242" class="cardNote">2026-05-17</text>

    <rect x="676" y="164" width="228" height="86" rx="18" fill="#0E1F2C" stroke="#A78BFA" stroke-opacity="0.28"/>
    <text x="696" y="192" class="cardLabel">STRONGEST WEEK</text>
    <text x="696" y="226" class="cardValue">614</text>
    <text x="696" y="242" class="cardNote">2026-05-10 to 2026-05-16</text>

    <rect x="922" y="164" width="220" height="86" rx="18" fill="#0E1F2C" stroke="#F59E0B" stroke-opacity="0.28"/>
    <text x="942" y="192" class="cardLabel">WINDOW</text>
    <text x="942" y="226" class="cardValue">Jan-Jun</text>
    <text x="942" y="242" class="cardNote">through June 7, 2026</text>
  </g>

  <text x="58" y="306" class="section">Daily contribution heatmap</text>
  <text x="58" y="330" class="subtitle">Each square is one day. Brighter cells mean heavier activity.</text>
  <g><rect x="70" y="258" width="12" height="12" rx="3" fill="#172434" opacity="0.62"><title>2026-01-01: 0 contributions</title></rect><rect x="70" y="274" width="12" height="12" rx="3" fill="#172434" opacity="0.62"><title>2026-01-02: 0 contributions</title></rect><rect x="70" y="290" width="12" height="12" rx="3" fill="#172434" opacity="0.62"><title>2026-01-03: 0 contributions</title></rect><rect x="86" y="306" width="12" height="12" rx="3" fill="#172434" opacity="0.62"><title>2026-01-04: 0 contributions</title></rect><rect x="86" y="210" width="12" height="12" rx="3" fill="#172434" opacity="0.62"><title>2026-01-05: 0 contributions</title></rect><rect x="86" y="226" width="12" height="12" rx="3" fill="#172434" opacity="0.62"><title>2026-01-06: 0 contributions</title></rect><rect x="86" y="242" width="12" height="12" rx="3" fill="#172434" opacity="0.62"><title>2026-01-07: 0 contributions</title></rect><rect x="86" y="258" width="12" height="12" rx="3" fill="#172434" opacity="0.62"><title>2026-01-08: 0 contributions</title></rect><rect x="86" y="274" width="12" height="12" rx="3" fill="#172434" opacity="0.62"><title>2026-01-09: 0 contributions</title></rect><rect x="86" y="290" width="12" height="12" rx="3" fill="#172434" opacity="0.62"><title>2026-01-10: 0 contributions</title></rect><rect x="102" y="306" width="12" height="12" rx="3" fill="#172434" opacity="0.62"><title>2026-01-11: 0 contributions</title></rect><rect x="102" y="210" width="12" height="12" rx="3" fill="#172434" opacity="0.62"><title>2026-01-12: 0 contributions</title></rect><rect x="102" y="226" width="12" height="12" rx="3" fill="#172434" opacity="0.62"><title>2026-01-13: 0 contributions</title></rect><rect x="102" y="242" width="12" height="12" rx="3" fill="#172434" opacity="0.62"><title>2026-01-14: 0 contributions</title></rect><rect x="102" y="258" width="12" height="12" rx="3" fill="#172434" opacity="0.62"><title>2026-01-15: 0 contributions</title></rect><rect x="102" y="274" width="12" height="12" rx="3" fill="#172434" opacity="0.62"><title>2026-01-16: 0 contributions</title></rect><rect x="102" y="290" width="12" height="12" rx="3" fill="#172434" opacity="0.62"><title>2026-01-17: 0 contributions</title></rect><rect x="118" y="306" width="12" height="12" rx="3" fill="#172434" opacity="0.62"><title>2026-01-18: 0 contributions</title></rect><rect x="118" y="210" width="12" height="12" rx="3" fill="#172434" opacity="0.62"><title>2026-01-19: 0 contributions</title></rect><rect x="118" y="226" width="12" height="12" rx="3" fill="#172434" opacity="0.62"><title>2026-01-20: 0 contributions</title></rect><rect x="118" y="242" width="12" height="12" rx="3" fill="#172434" opacity="0.62"><title>2026-01-21: 0 contributions</title></rect><rect x="118" y="258" width="12" height="12" rx="3" fill="#172434" opacity="0.62"><title>2026-01-22: 0 contributions</title></rect><rect x="118" y="274" width="12" height="12" rx="3" fill="#172434" opacity="0.62"><title>2026-01-23: 0 contributions</title></rect><rect x="118" y="290" width="12" height="12" rx="3" fill="#172434" opacity="0.62"><title>2026-01-24: 0 contributions</title></rect><rect x="134" y="306" width="12" height="12" rx="3" fill="#172434" opacity="0.62"><title>2026-01-25: 0 contributions</title></rect><rect x="134" y="210" width="12" height="12" rx="3" fill="#172434" opacity="0.62"><title>2026-01-26: 0 contributions</title></rect><rect x="134" y="226" width="12" height="12" rx="3" fill="#172434" opacity="0.62"><title>2026-01-27: 0 contributions</title></rect><rect x="134" y="242" width="12" height="12" rx="3" fill="#172434" opacity="0.62"><title>2026-01-28: 0 contributions</title></rect><rect x="134" y="258" width="12" height="12" rx="3" fill="#172434" opacity="0.62"><title>2026-01-29: 0 contributions</title></rect><rect x="134" y="274" width="12" height="12" rx="3" fill="#172434" opacity="0.62"><title>2026-01-30: 0 contributions</title></rect><rect x="134" y="290" width="12" height="12" rx="3" fill="#172434" opacity="0.62"><title>2026-01-31: 0 contributions</title></rect><rect x="150" y="306" width="12" height="12" rx="3" fill="#172434" opacity="0.62"><title>2026-02-01: 0 contributions</title></rect><rect x="150" y="210" width="12" height="12" rx="3" fill="#172434" opacity="0.62"><title>2026-02-02: 0 contributions</title></rect><rect x="150" y="226" width="12" height="12" rx="3" fill="#172434" opacity="0.62"><title>2026-02-03: 0 contributions</title></rect><rect x="150" y="242" width="12" height="12" rx="3" fill="#172434" opacity="0.62"><title>2026-02-04: 0 contributions</title></rect><rect x="150" y="258" width="12" height="12" rx="3" fill="#172434" opacity="0.62"><title>2026-02-05: 0 contributions</title></rect><rect x="150" y="274" width="12" height="12" rx="3" fill="#172434" opacity="0.62"><title>2026-02-06: 0 contributions</title></rect><rect x="150" y="290" width="12" height="12" rx="3" fill="#172434" opacity="0.62"><title>2026-02-07: 0 contributions</title></rect><rect x="166" y="306" width="12" height="12" rx="3" fill="#172434" opacity="0.62"><title>2026-02-08: 0 contributions</title></rect><rect x="166" y="210" width="12" height="12" rx="3" fill="#172434" opacity="0.62"><title>2026-02-09: 0 contributions</title></rect><rect x="166" y="226" width="12" height="12" rx="3" fill="#172434" opacity="0.62"><title>2026-02-10: 0 contributions</title></rect><rect x="166" y="242" width="12" height="12" rx="3" fill="#172434" opacity="0.62"><title>2026-02-11: 0 contributions</title></rect><rect x="166" y="258" width="12" height="12" rx="3" fill="#172434" opacity="0.62"><title>2026-02-12: 0 contributions</title></rect><rect x="166" y="274" width="12" height="12" rx="3" fill="#172434" opacity="0.62"><title>2026-02-13: 0 contributions</title></rect><rect x="166" y="290" width="12" height="12" rx="3" fill="#172434" opacity="0.62"><title>2026-02-14: 0 contributions</title></rect><rect x="182" y="306" width="12" height="12" rx="3" fill="#172434" opacity="0.62"><title>2026-02-15: 0 contributions</title></rect><rect x="182" y="210" width="12" height="12" rx="3" fill="#172434" opacity="0.62"><title>2026-02-16: 0 contributions</title></rect><rect x="182" y="226" width="12" height="12" rx="3" fill="#172434" opacity="0.62"><title>2026-02-17: 0 contributions</title></rect><rect x="182" y="242" width="12" height="12" rx="3" fill="#172434" opacity="0.62"><title>2026-02-18: 0 contributions</title></rect><rect x="182" y="258" width="12" height="12" rx="3" fill="#172434" opacity="0.62"><title>2026-02-19: 0 contributions</title></rect><rect x="182" y="274" width="12" height="12" rx="3" fill="#172434" opacity="0.62"><title>2026-02-20: 0 contributions</title></rect><rect x="182" y="290" width="12" height="12" rx="3" fill="#172434" opacity="0.62"><title>2026-02-21: 0 contributions</title></rect><rect x="198" y="306" width="12" height="12" rx="3" fill="#172434" opacity="0.62"><title>2026-02-22: 0 contributions</title></rect><rect x="198" y="210" width="12" height="12" rx="3" fill="#172434" opacity="0.62"><title>2026-02-23: 0 contributions</title></rect><rect x="198" y="226" width="12" height="12" rx="3" fill="#172434" opacity="0.62"><title>2026-02-24: 0 contributions</title></rect><rect x="198" y="242" width="12" height="12" rx="3" fill="#0E5F3A" opacity="1"><title>2026-02-25: 10 contributions</title></rect><rect x="198" y="258" width="12" height="12" rx="3" fill="#0E5F3A" opacity="1"><title>2026-02-26: 3 contributions</title></rect><rect x="198" y="274" width="12" height="12" rx="3" fill="#0E5F3A" opacity="1"><title>2026-02-27: 3 contributions</title></rect><rect x="198" y="290" width="12" height="12" rx="3" fill="#0E5F3A" opacity="1"><title>2026-02-28: 2 contributions</title></rect><rect x="214" y="306" width="12" height="12" rx="3" fill="#0E5F3A" opacity="1"><title>2026-03-01: 2 contributions</title></rect><rect x="214" y="210" width="12" height="12" rx="3" fill="#172434" opacity="0.62"><title>2026-03-02: 0 contributions</title></rect><rect x="214" y="226" width="12" height="12" rx="3" fill="#0E5F3A" opacity="1"><title>2026-03-03: 2 contributions</title></rect><rect x="214" y="242" width="12" height="12" rx="3" fill="#172434" opacity="0.62"><title>2026-03-04: 0 contributions</title></rect><rect x="214" y="258" width="12" height="12" rx="3" fill="#172434" opacity="0.62"><title>2026-03-05: 0 contributions</title></rect><rect x="214" y="274" width="12" height="12" rx="3" fill="#172434" opacity="0.62"><title>2026-03-06: 0 contributions</title></rect><rect x="214" y="290" width="12" height="12" rx="3" fill="#172434" opacity="0.62"><title>2026-03-07: 0 contributions</title></rect><rect x="230" y="306" width="12" height="12" rx="3" fill="#172434" opacity="0.62"><title>2026-03-08: 0 contributions</title></rect><rect x="230" y="210" width="12" height="12" rx="3" fill="#172434" opacity="0.62"><title>2026-03-09: 0 contributions</title></rect><rect x="230" y="226" width="12" height="12" rx="3" fill="#0E5F3A" opacity="1"><title>2026-03-10: 1 contributions</title></rect><rect x="230" y="242" width="12" height="12" rx="3" fill="#0E5F3A" opacity="1"><title>2026-03-11: 1 contributions</title></rect><rect x="230" y="258" width="12" height="12" rx="3" fill="#0E5F3A" opacity="1"><title>2026-03-12: 5 contributions</title></rect><rect x="230" y="274" width="12" height="12" rx="3" fill="#172434" opacity="0.62"><title>2026-03-13: 0 contributions</title></rect><rect x="230" y="290" width="12" height="12" rx="3" fill="#0E5F3A" opacity="1"><title>2026-03-14: 3 contributions</title></rect><rect x="246" y="306" width="12" height="12" rx="3" fill="#0E5F3A" opacity="1"><title>2026-03-15: 8 contributions</title></rect><rect x="246" y="210" width="12" height="12" rx="3" fill="#0E5F3A" opacity="1"><title>2026-03-16: 3 contributions</title></rect><rect x="246" y="226" width="12" height="12" rx="3" fill="#0E5F3A" opacity="1"><title>2026-03-17: 11 contributions</title></rect><rect x="246" y="242" width="12" height="12" rx="3" fill="#0E5F3A" opacity="1"><title>2026-03-18: 16 contributions</title></rect><rect x="246" y="258" width="12" height="12" rx="3" fill="#172434" opacity="0.62"><title>2026-03-19: 0 contributions</title></rect><rect x="246" y="274" width="12" height="12" rx="3" fill="#0E5F3A" opacity="1"><title>2026-03-20: 6 contributions</title></rect><rect x="246" y="290" width="12" height="12" rx="3" fill="#0E5F3A" opacity="1"><title>2026-03-21: 4 contributions</title></rect><rect x="262" y="306" width="12" height="12" rx="3" fill="#172434" opacity="0.62"><title>2026-03-22: 0 contributions</title></rect><rect x="262" y="210" width="12" height="12" rx="3" fill="#172434" opacity="0.62"><title>2026-03-23: 0 contributions</title></rect><rect x="262" y="226" width="12" height="12" rx="3" fill="#172434" opacity="0.62"><title>2026-03-24: 0 contributions</title></rect><rect x="262" y="242" width="12" height="12" rx="3" fill="#172434" opacity="0.62"><title>2026-03-25: 0 contributions</title></rect><rect x="262" y="258" width="12" height="12" rx="3" fill="#172434" opacity="0.62"><title>2026-03-26: 0 contributions</title></rect><rect x="262" y="274" width="12" height="12" rx="3" fill="#0E5F3A" opacity="1"><title>2026-03-27: 6 contributions</title></rect><rect x="262" y="290" width="12" height="12" rx="3" fill="#0E5F3A" opacity="1"><title>2026-03-28: 2 contributions</title></rect><rect x="278" y="306" width="12" height="12" rx="3" fill="#172434" opacity="0.62"><title>2026-03-29: 0 contributions</title></rect><rect x="278" y="210" width="12" height="12" rx="3" fill="#0E5F3A" opacity="1"><title>2026-03-30: 6 contributions</title></rect><rect x="278" y="226" width="12" height="12" rx="3" fill="#0E5F3A" opacity="1"><title>2026-03-31: 9 contributions</title></rect><rect x="278" y="242" width="12" height="12" rx="3" fill="#0E5F3A" opacity="1"><title>2026-04-01: 2 contributions</title></rect><rect x="278" y="258" width="12" height="12" rx="3" fill="#0E5F3A" opacity="1"><title>2026-04-02: 6 contributions</title></rect><rect x="278" y="274" width="12" height="12" rx="3" fill="#0E5F3A" opacity="1"><title>2026-04-03: 4 contributions</title></rect><rect x="278" y="290" width="12" height="12" rx="3" fill="#0E5F3A" opacity="1"><title>2026-04-04: 2 contributions</title></rect><rect x="294" y="306" width="12" height="12" rx="3" fill="#172434" opacity="0.62"><title>2026-04-05: 0 contributions</title></rect><rect x="294" y="210" width="12" height="12" rx="3" fill="#0E5F3A" opacity="1"><title>2026-04-06: 8 contributions</title></rect><rect x="294" y="226" width="12" height="12" rx="3" fill="#0E5F3A" opacity="1"><title>2026-04-07: 4 contributions</title></rect><rect x="294" y="242" width="12" height="12" rx="3" fill="#0E5F3A" opacity="1"><title>2026-04-08: 4 contributions</title></rect><rect x="294" y="258" width="12" height="12" rx="3" fill="#1D9A5F" opacity="1"><title>2026-04-09: 40 contributions</title></rect><rect x="294" y="274" width="12" height="12" rx="3" fill="#1D9A5F" opacity="1"><title>2026-04-10: 85 contributions</title></rect><rect x="294" y="290" width="12" height="12" rx="3" fill="#0E5F3A" opacity="1"><title>2026-04-11: 13 contributions</title></rect><rect x="310" y="306" width="12" height="12" rx="3" fill="#0E5F3A" opacity="1"><title>2026-04-12: 33 contributions</title></rect><rect x="310" y="210" width="12" height="12" rx="3" fill="#1D9A5F" opacity="1"><title>2026-04-13: 43 contributions</title></rect><rect x="310" y="226" width="12" height="12" rx="3" fill="#1D9A5F" opacity="1"><title>2026-04-14: 85 contributions</title></rect><rect x="310" y="242" width="12" height="12" rx="3" fill="#1D9A5F" opacity="1"><title>2026-04-15: 56 contributions</title></rect><rect x="310" y="258" width="12" height="12" rx="3" fill="#0E5F3A" opacity="1"><title>2026-04-16: 31 contributions</title></rect><rect x="310" y="274" width="12" height="12" rx="3" fill="#1D9A5F" opacity="1"><title>2026-04-17: 41 contributions</title></rect><rect x="310" y="290" width="12" height="12" rx="3" fill="#0E5F3A" opacity="1"><title>2026-04-18: 8 contributions</title></rect><rect x="326" y="306" width="12" height="12" rx="3" fill="#0E5F3A" opacity="1"><title>2026-04-19: 22 contributions</title></rect><rect x="326" y="210" width="12" height="12" rx="3" fill="#1D9A5F" opacity="1"><title>2026-04-20: 74 contributions</title></rect><rect x="326" y="226" width="12" height="12" rx="3" fill="#0E5F3A" opacity="1"><title>2026-04-21: 31 contributions</title></rect><rect x="326" y="242" width="12" height="12" rx="3" fill="#1D9A5F" opacity="1"><title>2026-04-22: 59 contributions</title></rect><rect x="326" y="258" width="12" height="12" rx="3" fill="#0E5F3A" opacity="1"><title>2026-04-23: 29 contributions</title></rect><rect x="326" y="274" width="12" height="12" rx="3" fill="#0E5F3A" opacity="1"><title>2026-04-24: 23 contributions</title></rect><rect x="326" y="290" width="12" height="12" rx="3" fill="#0E5F3A" opacity="1"><title>2026-04-25: 31 contributions</title></rect><rect x="342" y="306" width="12" height="12" rx="3" fill="#0E5F3A" opacity="1"><title>2026-04-26: 26 contributions</title></rect><rect x="342" y="210" width="12" height="12" rx="3" fill="#0E5F3A" opacity="1"><title>2026-04-27: 23 contributions</title></rect><rect x="342" y="226" width="12" height="12" rx="3" fill="#0E5F3A" opacity="1"><title>2026-04-28: 10 contributions</title></rect><rect x="342" y="242" width="12" height="12" rx="3" fill="#0E5F3A" opacity="1"><title>2026-04-29: 2 contributions</title></rect><rect x="342" y="258" width="12" height="12" rx="3" fill="#0E5F3A" opacity="1"><title>2026-04-30: 6 contributions</title></rect><rect x="342" y="274" width="12" height="12" rx="3" fill="#0E5F3A" opacity="1"><title>2026-05-01: 1 contributions</title></rect><rect x="342" y="290" width="12" height="12" rx="3" fill="#0E5F3A" opacity="1"><title>2026-05-02: 10 contributions</title></rect><rect x="358" y="306" width="12" height="12" rx="3" fill="#0E5F3A" opacity="1"><title>2026-05-03: 14 contributions</title></rect><rect x="358" y="210" width="12" height="12" rx="3" fill="#0E5F3A" opacity="1"><title>2026-05-04: 18 contributions</title></rect><rect x="358" y="226" width="12" height="12" rx="3" fill="#0E5F3A" opacity="1"><title>2026-05-05: 25 contributions</title></rect><rect x="358" y="242" width="12" height="12" rx="3" fill="#0E5F3A" opacity="1"><title>2026-05-06: 6 contributions</title></rect><rect x="358" y="258" width="12" height="12" rx="3" fill="#0E5F3A" opacity="1"><title>2026-05-07: 27 contributions</title></rect><rect x="358" y="274" width="12" height="12" rx="3" fill="#0E5F3A" opacity="1"><title>2026-05-08: 1 contributions</title></rect><rect x="358" y="290" width="12" height="12" rx="3" fill="#0E5F3A" opacity="1"><title>2026-05-09: 4 contributions</title></rect><rect x="374" y="306" width="12" height="12" rx="3" fill="#0E5F3A" opacity="1"><title>2026-05-10: 4 contributions</title></rect><rect x="374" y="210" width="12" height="12" rx="3" fill="#1D9A5F" opacity="1"><title>2026-05-11: 52 contributions</title></rect><rect x="374" y="226" width="12" height="12" rx="3" fill="#1D9A5F" opacity="1"><title>2026-05-12: 75 contributions</title></rect><rect x="374" y="242" width="12" height="12" rx="3" fill="#1D9A5F" opacity="1"><title>2026-05-13: 52 contributions</title></rect><rect x="374" y="258" width="12" height="12" rx="3" fill="#1D9A5F" opacity="1"><title>2026-05-14: 46 contributions</title></rect><rect x="374" y="274" width="12" height="12" rx="3" fill="#B7F38A" opacity="1"><title>2026-05-15: 240 contributions</title></rect><rect x="374" y="290" width="12" height="12" rx="3" fill="#35C97D" opacity="1"><title>2026-05-16: 145 contributions</title></rect><rect x="390" y="306" width="12" height="12" rx="3" fill="#B7F38A" opacity="1"><title>2026-05-17: 247 contributions</title></rect><rect x="390" y="210" width="12" height="12" rx="3" fill="#35C97D" opacity="1"><title>2026-05-18: 146 contributions</title></rect><rect x="390" y="226" width="12" height="12" rx="3" fill="#0E5F3A" opacity="1"><title>2026-05-19: 24 contributions</title></rect><rect x="390" y="242" width="12" height="12" rx="3" fill="#172434" opacity="0.62"><title>2026-05-20: 0 contributions</title></rect><rect x="390" y="258" width="12" height="12" rx="3" fill="#172434" opacity="0.62"><title>2026-05-21: 0 contributions</title></rect><rect x="390" y="274" width="12" height="12" rx="3" fill="#0E5F3A" opacity="1"><title>2026-05-22: 3 contributions</title></rect><rect x="390" y="290" width="12" height="12" rx="3" fill="#0E5F3A" opacity="1"><title>2026-05-23: 9 contributions</title></rect><rect x="406" y="306" width="12" height="12" rx="3" fill="#172434" opacity="0.62"><title>2026-05-24: 0 contributions</title></rect><rect x="406" y="210" width="12" height="12" rx="3" fill="#0E5F3A" opacity="1"><title>2026-05-25: 22 contributions</title></rect><rect x="406" y="226" width="12" height="12" rx="3" fill="#172434" opacity="0.62"><title>2026-05-26: 0 contributions</title></rect><rect x="406" y="242" width="12" height="12" rx="3" fill="#172434" opacity="0.62"><title>2026-05-27: 0 contributions</title></rect><rect x="406" y="258" width="12" height="12" rx="3" fill="#172434" opacity="0.62"><title>2026-05-28: 0 contributions</title></rect><rect x="406" y="274" width="12" height="12" rx="3" fill="#172434" opacity="0.62"><title>2026-05-29: 0 contributions</title></rect><rect x="406" y="290" width="12" height="12" rx="3" fill="#172434" opacity="0.62"><title>2026-05-30: 0 contributions</title></rect><rect x="422" y="306" width="12" height="12" rx="3" fill="#172434" opacity="0.62"><title>2026-05-31: 0 contributions</title></rect><rect x="422" y="210" width="12" height="12" rx="3" fill="#172434" opacity="0.62"><title>2026-06-01: 0 contributions</title></rect><rect x="422" y="226" width="12" height="12" rx="3" fill="#172434" opacity="0.62"><title>2026-06-02: 0 contributions</title></rect><rect x="422" y="242" width="12" height="12" rx="3" fill="#0E5F3A" opacity="1"><title>2026-06-03: 8 contributions</title></rect><rect x="422" y="258" width="12" height="12" rx="3" fill="#0E5F3A" opacity="1"><title>2026-06-04: 7 contributions</title></rect><rect x="422" y="274" width="12" height="12" rx="3" fill="#0E5F3A" opacity="1"><title>2026-06-05: 1 contributions</title></rect><rect x="422" y="290" width="12" height="12" rx="3" fill="#172434" opacity="0.62"><title>2026-06-06: 0 contributions</title></rect><rect x="438" y="306" width="12" height="12" rx="3" fill="#0E5F3A" opacity="1"><title>2026-06-07: 30 contributions</title></rect></g>
  <g transform="translate(70 344)">
    <text x="0" y="0" class="legend">Less</text>
    <rect x="38" y="-10" width="12" height="12" rx="3" fill="#172434" opacity=".62"/>
    <rect x="56" y="-10" width="12" height="12" rx="3" fill="#0E5F3A"/>
    <rect x="74" y="-10" width="12" height="12" rx="3" fill="#1D9A5F"/>
    <rect x="92" y="-10" width="12" height="12" rx="3" fill="#35C97D"/>
    <rect x="110" y="-10" width="12" height="12" rx="3" fill="#B7F38A"/>
    <text x="132" y="0" class="legend">More</text>
  </g>

  <text x="566" y="306" class="section">Monthly contribution volume</text>
  <g><rect x="566" y="300" width="72" height="0" rx="10" fill="url(#barGrad)"/><text x="602.0" y="328" class="axis" text-anchor="middle">Jan</text><text x="602.0" y="290" class="barValue" text-anchor="middle">0</text><rect x="658" y="298" width="72" height="2" rx="10" fill="url(#barGrad)"/><text x="694.0" y="328" class="axis" text-anchor="middle">Feb</text><text x="694.0" y="288" class="barValue" text-anchor="middle">18</text><rect x="750" y="289" width="72" height="11" rx="10" fill="url(#barGrad)"/><text x="786.0" y="328" class="axis" text-anchor="middle">Mar</text><text x="786.0" y="279" class="barValue" text-anchor="middle">85</text><rect x="842" y="196" width="72" height="104" rx="10" fill="url(#barGrad)"/><text x="878.0" y="328" class="axis" text-anchor="middle">Apr</text><text x="878.0" y="186" class="barValue" text-anchor="middle">801</text><rect x="934" y="148" width="72" height="152" rx="10" fill="url(#barGrad)"/><text x="970.0" y="328" class="axis" text-anchor="middle">May</text><text x="970.0" y="138" class="barValue" text-anchor="middle">1,171</text><rect x="1026" y="294" width="72" height="6" rx="10" fill="url(#barGrad)"/><text x="1062.0" y="328" class="axis" text-anchor="middle">Jun</text><text x="1062.0" y="284" class="barValue" text-anchor="middle">46</text></g>

  <text x="58" y="416" class="section">Weekly activity trend</text>
  <path d="M 70,562 70.0,562.0 90.4,562.0 110.9,562.0 131.3,562.0 151.7,562.0 172.2,562.0 192.6,562.0 213.0,562.0 233.5,558.7 253.9,561.3 274.3,560.2 294.8,553.2 315.2,560.5 335.7,556.7 356.1,533.9 376.5,507.8 397.0,512.9 417.4,547.8 437.8,544.7 458.3,450.0 478.7,483.7 499.1,558.0 519.6,559.1 540.0,556.5 540,562" fill="#38BDF8" fill-opacity="0.10"/>
  <polyline points="70.0,562.0 90.4,562.0 110.9,562.0 131.3,562.0 151.7,562.0 172.2,562.0 192.6,562.0 213.0,562.0 233.5,558.7 253.9,561.3 274.3,560.2 294.8,553.2 315.2,560.5 335.7,556.7 356.1,533.9 376.5,507.8 397.0,512.9 417.4,547.8 437.8,544.7 458.3,450.0 478.7,483.7 499.1,558.0 519.6,559.1 540.0,556.5" fill="none" stroke="url(#spark)" stroke-width="5" stroke-linecap="round" stroke-linejoin="round"/>
  <circle class="pulse" cx="458.3" cy="450.0" r="4" fill="#FDE68A"/>
  <text x="58" y="590" class="subtitle">Peak week: 614 contributions. This section is intentionally 2026-only.</text>

  <text x="610" y="416" class="section">Repositories active in the 2026 story</text>
  <g><text x="610" y="440" class="repoName">emmanuelnegash</text><text x="894" y="440" class="repoDesc">profile README + visual portfolio</text><text x="610" y="476" class="repoName">delivargo_price</text><text x="894" y="476" class="repoDesc">logistics quote engine</text><text x="610" y="512" class="repoName">selam</text><text x="894" y="512" class="repoDesc">community product surface</text><text x="610" y="548" class="repoName">omnisaccos</text><text x="894" y="548" class="repoDesc">finance platform work</text><text x="610" y="584" class="repoName">personal-ai-executive-assistant</text><text x="894" y="584" class="repoDesc">agentic assistant system</text></g>
</svg>
